<svg id="OnO" data-name="OnO" xmlns="http://www.w3.org/2000/svg" viewBox="0 0 480 480"><defs><style>.cls-1{fill:#fffaf2;}.cls-2{fill:#ffbd4f;}.cls-3{fill:#ffa155;}</style></defs><title>OnO</title><circle class="cls-1" cx="240.02" cy="240.01" r="200"/><path class="cls-2" d="M307.6,65.07c-9.46-3.33-9.46-3.33-12.7,8.77L259.59,205.62c-1.52,5.66,5,8.66,8.58,6.59l118.4-68.36c10.6-6.12,10.6-6.12,4.94-14.4h0A186.66,186.66,0,0,0,307.6,65.06"/><path class="cls-2" d="M164.1,68.52c-9,4.34-9,4.34-2.78,15.19l68.22,118.15c2.93,5.07,9.66,2.58,10.73-1.42l35.38-132c3.17-11.82,3.17-11.82-6.69-13.68h0A186.65,186.65,0,0,0,164.1,68.51"/><path class="cls-2" d="M65.07,172.43c-3.32,9.46-3.32,9.46,8.78,12.7l131.78,35.31c5.66,1.52,8.66-5,6.59-8.58L143.86,93.46c-6.12-10.6-6.12-10.6-14.4-4.94h0a186.58,186.58,0,0,0-64.39,83.91"/><path class="cls-2" d="M68.53,315.93c4.34,9,4.34,9,15.18,2.78l118.15-68.22c5.08-2.93,2.59-9.66-1.41-10.73L68.39,204.38c-11.82-3.17-11.82-3.17-13.67,6.69h0a186.65,186.65,0,0,0,13.8,104.86"/><path class="cls-2" d="M172.44,415c9.46,3.32,9.46,3.32,12.7-8.78L220.45,274.4c1.52-5.66-5-8.66-8.59-6.59L93.46,336.17c-10.59,6.12-10.59,6.12-4.93,14.4h0A186.61,186.61,0,0,0,172.44,415"/><path class="cls-2" d="M315.94,411.5c9-4.34,9-4.34,2.77-15.18L250.5,278.17c-2.93-5.08-9.66-2.59-10.73,1.41L204.39,411.64c-3.17,11.82-3.17,11.82,6.68,13.67h0a186.68,186.68,0,0,0,104.87-13.8"/><path class="cls-2" d="M415,307.59c3.33-9.46,3.33-9.46-8.77-12.7L274.41,259.58c-5.66-1.52-8.66,5-6.59,8.59l68.36,118.4c6.12,10.59,6.12,10.59,14.4,4.94h0A186.61,186.61,0,0,0,415,307.59"/><path class="cls-2" d="M411.51,164.09c-4.34-9-4.34-9-15.19-2.77L278.17,229.53c-5.07,2.93-2.58,9.66,1.42,10.73l132.05,35.39c11.83,3.16,11.83,3.16,13.68-6.69h0a186.68,186.68,0,0,0-13.8-104.87"/><path class="cls-3" d="M127.53,45.11C19.92,107.24-17,244.85,45.17,352.47S244.92,497,352.53,434.83,497,235.08,434.89,127.47,235.14-17,127.53,45.11ZM340,413.17c-95.66,55.23-218,22.45-273.2-73.2S44.37,122,140,66.76,358,44.31,413.24,140,435.69,357.94,340,413.17Z"/></svg>